<svg xmlns="http://www.w3.org/2000/svg" viewBox="0 0 1000 700">
  <rect width="1000" height="700" fill="#ffffff" />
  <g stroke="#111827" stroke-width="3" fill="none" stroke-linecap="round" stroke-linejoin="round">
    <!-- Side view (top) -->
    <rect x="200" y="40" width="600" height="120" rx="24" />
    <path d="M260 40 L330 80 L670 80 L740 40" />
    <line x1="260" y1="120" x2="740" y2="120" />
    <circle cx="300" cy="160" r="26" />
    <circle cx="700" cy="160" r="26" />

    <!-- Front view (left) -->
    <rect x="40" y="240" width="140" height="220" rx="28" />
    <rect x="60" y="270" width="100" height="120" rx="18" />
    <line x1="40" y1="300" x2="180" y2="300" />
    <circle cx="70" cy="420" r="18" />
    <circle cx="150" cy="420" r="18" />

    <!-- Top view (center) -->
    <rect x="250" y="220" width="500" height="260" rx="90" />
    <rect x="310" y="255" width="380" height="190" rx="70" />
    <line x1="500" y1="220" x2="500" y2="480" />
    <line x1="360" y1="255" x2="360" y2="445" />
    <line x1="640" y1="255" x2="640" y2="445" />
    <circle cx="320" cy="250" r="28" />
    <circle cx="680" cy="250" r="28" />
    <circle cx="320" cy="450" r="28" />
    <circle cx="680" cy="450" r="28" />

    <!-- Rear view (right) -->
    <rect x="820" y="240" width="140" height="220" rx="28" />
    <rect x="840" y="270" width="100" height="120" rx="18" />
    <line x1="820" y1="300" x2="960" y2="300" />
    <circle cx="850" cy="420" r="18" />
    <circle cx="930" cy="420" r="18" />

    <!-- Side view (bottom) -->
    <rect x="200" y="540" width="600" height="120" rx="24" />
    <path d="M260 660 L330 620 L670 620 L740 660" />
    <line x1="260" y1="580" x2="740" y2="580" />
    <circle cx="300" cy="540" r="26" />
    <circle cx="700" cy="540" r="26" />
  </g>
</svg>
